<?xml version="1.0" encoding="UTF-8" standalone="no"?>
<svg width="196px" height="25px" viewBox="0 0 196 25" version="1.1" xmlns="http://www.w3.org/2000/svg" xmlns:xlink="http://www.w3.org/1999/xlink" xmlns:sketch="http://www.bohemiancoding.com/sketch/ns">
    <!-- Generator: Sketch 3.3.2 (12043) - http://www.bohemiancoding.com/sketch -->
    <title>iosicongallery-logo</title>
    <desc>Created with Sketch.</desc>
    <defs></defs>
    <g id="Page-1" stroke="none" stroke-width="1" fill="none" fill-rule="evenodd" sketch:type="MSPage">
        <g id="applewatchicongallery-logo" sketch:type="MSArtboardGroup" transform="translate(-71.000000, -170.000000)">
            <g id="ios" sketch:type="MSLayerGroup" transform="translate(72.000000, 170.372320)">
                <path d="M30.3650748,18.4730554 L30.3650748,5.85052532 L28.0700693,5.85052532 L28.0700693,18.4730554 L30.3650748,18.4730554 Z M29.2175721,0.869320255 C28.3830246,0.869320255 27.7831937,1.49523084 27.7831937,2.30369868 C27.7831937,3.08608691 28.356945,3.71199749 29.1654129,3.71199749 C30.0781991,3.71199749 30.6519505,3.08608691 30.6258709,2.30369868 C30.6258709,1.49523084 30.0781991,0.869320255 29.2175721,0.869320255 L29.2175721,0.869320255 Z M41.3706693,0.608524179 C36.6763399,0.608524179 33.2077521,4.25966925 33.2077521,9.84070529 C33.2077521,15.1609453 36.467703,18.7599311 41.1098732,18.7599311 C45.5955657,18.7599311 49.2727904,15.5521394 49.2727904,9.50167039 C49.2727904,4.28574886 46.1693171,0.608524179 41.3706693,0.608524179 L41.3706693,0.608524179 Z M41.2663508,2.46017632 C45.0478939,2.46017632 46.8734665,6.1113214 46.8734665,9.60598882 C46.8734665,13.5961688 44.8392571,16.908279 41.2402712,16.908279 C37.667365,16.908279 35.6331556,13.5440096 35.6331556,9.78854608 C35.6331556,5.92876414 37.5108873,2.46017632 41.2663508,2.46017632 L41.2663508,2.46017632 Z M51.3330794,17.6124284 C52.2719453,18.238339 54.1235974,18.7338515 55.8187719,18.7338515 C59.9654295,18.7338515 61.9735593,16.3866868 61.9735593,13.6744076 C61.9735593,11.0925265 60.4609421,9.65814804 57.4878668,8.5106453 C55.0624633,7.57177943 53.9931994,6.76331159 53.9931994,5.1202963 C53.9931994,3.92063435 54.9059856,2.48625593 57.3053095,2.48625593 C58.8961656,2.48625593 60.0697479,3.00784808 60.6434993,3.32080338 L61.2694099,1.46915123 C60.4870217,1.0257979 59.1830413,0.608524179 57.3835484,0.608524179 C53.9671198,0.608524179 51.6981939,2.64273358 51.6981939,5.38109238 C51.6981939,7.85865511 53.4716072,9.34519275 56.3403641,10.3622974 C58.7136083,11.2750837 59.6524742,12.2139496 59.6524742,13.8569649 C59.6524742,15.6303782 58.2963346,16.8561198 55.9752495,16.8561198 C54.4104731,16.8561198 52.9239354,16.3345276 51.9068307,15.708617 L51.3330794,17.6124284 Z" id="iOS" fill="#000000" sketch:type="MSShapeGroup"></path>
                <path d="M73.3008022,18.5165214 L73.3008022,5.89399133 L71.0057968,5.89399133 L71.0057968,18.5165214 L73.3008022,18.5165214 Z M72.1532995,0.912786268 C71.3187521,0.912786268 70.7189211,1.53869685 70.7189211,2.34716469 C70.7189211,3.12955292 71.2926724,3.7554635 72.1011403,3.7554635 C73.0139266,3.7554635 73.5876779,3.12955292 73.5615983,2.34716469 C73.5615983,1.53869685 73.0139266,0.912786268 72.1532995,0.912786268 L72.1532995,0.912786268 Z M85.7146955,16.3258344 C85.0627053,16.6127101 84.2020782,16.951745 82.8980979,16.951745 C80.3944555,16.951745 78.5167238,15.1522521 78.5167238,12.231336 C78.5167238,9.59729562 80.0815002,7.45876779 82.9763367,7.45876779 C84.2281578,7.45876779 85.0887849,7.74564348 85.6364567,8.05859877 L86.1580488,6.28518545 C85.5321382,5.97223016 84.3324763,5.63319526 82.9763367,5.63319526 C78.8557587,5.63319526 76.1956387,8.44979288 76.1956387,12.3356544 C76.1956387,16.1954364 78.6732014,18.7773175 82.4808241,18.7773175 C84.1759986,18.7773175 85.5060586,18.3600438 86.1058896,18.0470885 L85.7146955,16.3258344 Z M93.9819311,5.60711565 C90.4872637,5.60711565 87.7228253,8.08467838 87.7228253,12.3095748 C87.7228253,16.2997548 90.3568656,18.8033971 93.7732943,18.8033971 C96.8246083,18.8033971 100.05848,16.7691877 100.05848,12.100938 C100.05848,8.24115602 97.6069966,5.60711565 93.9819311,5.60711565 L93.9819311,5.60711565 Z M93.9297719,7.32836975 C96.6420511,7.32836975 97.711315,10.040649 97.711315,12.1791768 C97.711315,15.021854 96.0682997,17.082143 93.8776127,17.082143 C91.6347664,17.082143 90.0439104,14.9957744 90.0439104,12.231336 C90.0439104,9.83201209 91.2174927,7.32836975 93.9297719,7.32836975 L93.9297719,7.32836975 Z M102.953316,18.5165214 L105.248322,18.5165214 L105.248322,10.9273556 C105.248322,10.5361615 105.300481,10.1449674 105.404799,9.8580917 C105.795993,8.58019092 106.969576,7.51092701 108.482193,7.51092701 C110.6468,7.51092701 111.403109,9.20610151 111.403109,11.2403109 L111.403109,18.5165214 L113.698115,18.5165214 L113.698115,10.9795148 C113.698115,6.65029995 110.985835,5.60711565 109.238502,5.60711565 C107.152133,5.60711565 105.691675,6.78069799 105.065764,7.98035995 L105.013605,7.98035995 L104.883207,5.89399133 L102.848998,5.89399133 C102.927237,6.93717564 102.953316,8.00643955 102.953316,9.31041994 L102.953316,18.5165214 Z M131.823442,5.89399133 L131.719123,7.79780269 L131.666964,7.79780269 C131.119292,6.75461839 129.91963,5.60711565 127.728943,5.60711565 C124.834107,5.60711565 122.043589,8.03251916 122.043589,12.3095748 C122.043589,15.8042422 124.286435,18.4643622 127.415988,18.4643622 C129.371959,18.4643622 130.728098,17.5254964 131.432248,16.351914 L131.484407,16.351914 L131.484407,17.7602128 C131.484407,20.941925 129.763153,22.1676665 127.415988,22.1676665 C125.851212,22.1676665 124.547231,21.6982336 123.712684,21.1766414 L123.138932,22.9239751 C124.156037,23.6020449 125.825132,23.9671594 127.337749,23.9671594 C128.928605,23.9671594 130.702019,23.6020449 131.92776,22.4545422 C133.153502,21.3591987 133.727253,19.5857854 133.727253,16.6909489 L133.727253,9.36257915 C133.727253,7.8238823 133.779412,6.8067776 133.831572,5.89399133 L131.823442,5.89399133 Z M131.458327,13.1441223 C131.458327,13.5353164 131.406168,13.9786697 131.27577,14.3698638 C130.780258,15.8303219 129.502357,16.7170285 128.094058,16.7170285 C125.616495,16.7170285 124.364674,14.6567395 124.364674,12.1791768 C124.364674,9.25826072 125.929451,7.40660858 128.120138,7.40660858 C129.789232,7.40660858 130.910656,8.5019521 131.327929,9.83201209 C131.432248,10.1449674 131.458327,10.4840023 131.458327,10.8751964 L131.458327,13.1441223 Z M146.610579,18.5165214 C146.454102,17.6558944 146.401943,16.5866305 146.401943,15.491287 L146.401943,10.770878 C146.401943,8.24115602 145.463077,5.60711565 141.603295,5.60711565 C140.012439,5.60711565 138.499821,6.05046898 137.456637,6.72853878 L137.978229,8.24115602 C138.864936,7.66740465 140.090677,7.30229015 141.26426,7.30229015 C143.846141,7.30229015 144.133017,9.1800219 144.133017,10.2232062 L144.133017,10.4840023 C139.25613,10.4579227 136.543851,12.1270176 136.543851,15.1783317 C136.543851,17.0039042 137.847831,18.8033971 140.403633,18.8033971 C142.203126,18.8033971 143.559265,17.9166905 144.263415,16.9256654 L144.341654,16.9256654 L144.524211,18.5165214 L146.610579,18.5165214 Z M144.185176,14.2655454 C144.185176,14.5002619 144.133017,14.7610579 144.054778,14.9957744 C143.689663,16.0650383 142.646479,17.1082226 141.003464,17.1082226 C139.829881,17.1082226 138.838856,16.4040732 138.838856,14.9175356 C138.838856,12.4660525 141.681534,12.0226991 144.185176,12.0748583 L144.185176,14.2655454 Z M150.105247,18.5165214 L152.400252,18.5165214 L152.400252,0 L150.105247,0 L150.105247,18.5165214 Z M156.260034,18.5165214 L158.55504,18.5165214 L158.55504,0 L156.260034,0 L156.260034,18.5165214 Z M172.559789,12.6225301 C172.585869,12.3878136 172.638028,12.0226991 172.638028,11.5532662 C172.638028,9.23218111 171.542684,5.60711565 167.422106,5.60711565 C163.744882,5.60711565 161.502035,8.60627053 161.502035,12.4138932 C161.502035,16.221516 163.82312,18.7773175 167.708982,18.7773175 C169.717112,18.7773175 171.099331,18.3600438 171.907799,17.9949293 L171.516605,16.351914 C170.655978,16.7170285 169.664953,17.0039042 168.021937,17.0039042 C165.726932,17.0039042 163.744882,15.7260034 163.692722,12.6225301 L172.559789,12.6225301 Z M163.718802,10.9795148 C163.901359,9.38865876 164.918464,7.25013093 167.239549,7.25013093 C169.82143,7.25013093 170.447341,9.5190568 170.421261,10.9795148 L163.718802,10.9795148 Z M175.480705,18.5165214 L177.749631,18.5165214 L177.749631,11.7879827 C177.749631,11.3967885 177.80179,11.031674 177.853949,10.7187187 C178.166905,8.99746464 179.314407,7.77172308 180.931343,7.77172308 C181.244298,7.77172308 181.479015,7.79780269 181.713731,7.84996191 L181.713731,5.68535447 C181.505094,5.63319526 181.322537,5.60711565 181.061741,5.60711565 C179.523044,5.60711565 178.140825,6.67637956 177.567074,8.37155406 L177.462755,8.37155406 L177.384516,5.89399133 L175.376387,5.89399133 C175.454625,7.06757368 175.480705,8.34547445 175.480705,9.83201209 L175.480705,18.5165214 Z M182.991632,5.89399133 L187.659882,17.5254964 C187.7642,17.812372 187.816359,17.9949293 187.816359,18.1253273 C187.816359,18.2557254 187.738121,18.4382826 187.633802,18.6729991 C187.11221,19.8465814 186.329822,20.7332881 185.703911,21.2288006 C185.025841,21.802552 184.269533,22.1676665 183.695781,22.3502238 L184.269533,24.2801147 C184.843284,24.1757963 185.964707,23.7846022 187.08613,22.7935771 C188.650907,21.4374375 189.77233,19.2206708 191.415345,14.891456 L194.857854,5.89399133 L192.43245,5.89399133 L189.928808,13.3005999 C189.615852,14.2133862 189.355056,15.1783317 189.12034,15.9346403 L189.068181,15.9346403 C188.859544,15.1783317 188.546589,14.1873066 188.259713,13.3527591 L185.495274,5.89399133 L182.991632,5.89399133 Z" id="icon-gallery-copy" fill="#999999" sketch:type="MSShapeGroup"></path>
                <path d="M14.0772482,1.71816944 C15.5081699,2.55761852 16.6427934,3.68849615 17.4818679,5.11005316 C18.3209424,6.53235934 18.7404796,8.10000522 18.7404796,9.81299078 C18.7404796,11.5267255 18.3209424,13.0984918 17.4818679,14.5294135 C16.6427934,15.9603352 15.5081699,17.0953333 14.0772482,17.9340332 C12.6463265,18.7734823 11.0741856,19.1930195 9.36120006,19.1930195 C7.64746533,19.1930195 6.07981946,18.7734823 4.65788786,17.9340332 C3.23595627,17.0953333 2.10507864,15.9603352 1.26637873,14.5294135 C0.427304237,13.0984918 0.00776699103,11.5267255 0.00776699103,9.81299078 C0.00776699103,8.55887408 0.2463788,7.35794871 0.722853244,6.20984009 C1.20007686,5.06173146 1.8758315,4.04997244 2.75011715,3.17568679 C3.62440281,2.30140113 4.6312922,1.63051613 5.77078532,1.16228259 C6.91027845,0.694049058 8.10633419,0.459932292 9.36120006,0.459932292 C11.0741856,0.459932292 12.6463265,0.879844125 14.0772482,1.71816944 Z" id="Fill-4" stroke="#000000" stroke-width="1.5" sketch:type="MSShapeGroup"></path>
                <path d="M10.9644317,13.2449553 L7.90106061,13.2449553 C6.90128837,13.2449553 6.08768578,12.4317273 6.08768578,11.431955 L6.08768578,8.36746021 C6.08768578,7.36806256 6.90128837,6.55483455 7.90106061,6.55483455 L10.9644317,6.55483455 C11.9642039,6.55483455 12.7778065,7.36806256 12.7778065,8.36746021 L12.7778065,11.431955 C12.7778065,12.4317273 11.9642039,13.2449553 10.9644317,13.2449553 L10.9644317,13.2449553 Z" id="Fill-6" stroke="#000000" stroke-width="1.5" sketch:type="MSShapeGroup"></path>
            </g>
        </g>
    </g>
</svg>