<?xml version="1.0" encoding="UTF-8" standalone="no"?>
<svg width="220px" height="24px" viewBox="0 0 220 24" version="1.1" xmlns="http://www.w3.org/2000/svg" xmlns:xlink="http://www.w3.org/1999/xlink">
    <!-- Generator: Sketch 3.8.3 (29802) - http://www.bohemiancoding.com/sketch -->
    <title>macosicongallery-logo</title>
    <desc>Created with Sketch.</desc>
    <defs></defs>
    <g id="Page-1" stroke="none" stroke-width="1" fill="none" fill-rule="evenodd">
        <g id="applewatchicongallery-logo" transform="translate(-72.000000, -514.000000)">
            <g id="macos" transform="translate(71.000000, 513.000000)">
                <path d="M17.5919382,20.3924844 L11.0048783,1.08665032 L9.18758593,1.08665032 L15.1148037,20.3924844 L17.5919382,20.3924844 Z M8.67861683,12.9288161 L11.5133929,12.9288161 L12.0746222,14.7338387 L8.10329997,14.7333843 L8.67861683,12.9288161 Z M4.96768678,20.3924844 L2.57098765,20.3924844 L8.55728223,2.85077357 L9.50023837,6.31721667 L4.96768678,20.3924844 Z M3.1772062,14.7338387 L1,14.7338387 L1,12.9288161 L3.80114779,12.9292706 L3.1772062,14.7338387 Z M16.9679966,14.7338387 L19.1452028,14.7338387 L19.1452028,12.9288161 L16.344055,12.9292706 L16.9679966,14.7338387 Z" id="Fill-3" fill="#000000"></path>
                <path d="M29.9,19 L31.964,19 L31.964,11.992 C31.964,11.632 32.012,11.272 32.132,10.96 C32.468,9.904 33.428,8.848 34.748,8.848 C36.356,8.848 37.172,10.192 37.172,12.04 L37.172,19 L39.236,19 L39.236,11.824 C39.236,11.44 39.308,11.056 39.404,10.768 C39.764,9.736 40.7,8.848 41.9,8.848 C43.604,8.848 44.42,10.192 44.42,12.424 L44.42,19 L46.484,19 L46.484,12.16 C46.484,8.128 44.204,7.12 42.668,7.12 C41.564,7.12 40.796,7.408 40.1,7.936 C39.62,8.296 39.164,8.8 38.804,9.448 L38.756,9.448 C38.252,8.08 37.052,7.12 35.468,7.12 C33.548,7.12 32.468,8.152 31.82,9.256 L31.748,9.256 L31.652,7.384 L29.804,7.384 C29.876,8.344 29.9,9.328 29.9,10.528 L29.9,19 Z M58.268,19 C58.124,18.208 58.076,17.224 58.076,16.216 L58.076,11.872 C58.076,9.544 57.212,7.12 53.66,7.12 C52.196,7.12 50.804,7.528 49.844,8.152 L50.324,9.544 C51.14,9.016 52.268,8.68 53.348,8.68 C55.724,8.68 55.988,10.408 55.988,11.368 L55.988,11.608 C51.5,11.584 49.004,13.12 49.004,15.928 C49.004,17.608 50.204,19.264 52.556,19.264 C54.212,19.264 55.46,18.448 56.108,17.536 L56.18,17.536 L56.348,19 L58.268,19 Z M56.036,15.088 C56.036,15.304 55.988,15.544 55.916,15.76 C55.58,16.744 54.62,17.704 53.108,17.704 C52.028,17.704 51.116,17.056 51.116,15.688 C51.116,13.432 53.732,13.024 56.036,13.072 L56.036,15.088 Z M69.404,16.984 C68.804,17.248 68.012,17.56 66.812,17.56 C64.508,17.56 62.78,15.904 62.78,13.216 C62.78,10.792 64.22,8.824 66.884,8.824 C68.036,8.824 68.828,9.088 69.332,9.376 L69.812,7.744 C69.236,7.456 68.132,7.144 66.884,7.144 C63.092,7.144 60.644,9.736 60.644,13.312 C60.644,16.864 62.924,19.24 66.428,19.24 C67.988,19.24 69.212,18.856 69.764,18.568 L69.404,16.984 Z M78.86,2.56 C74.54,2.56 71.348,5.92 71.348,11.056 C71.348,15.952 74.348,19.264 78.62,19.264 C82.748,19.264 86.132,16.312 86.132,10.744 C86.132,5.944 83.276,2.56 78.86,2.56 L78.86,2.56 Z M78.764,4.264 C82.244,4.264 83.924,7.624 83.924,10.84 C83.924,14.512 82.052,17.56 78.74,17.56 C75.452,17.56 73.58,14.464 73.58,11.008 C73.58,7.456 75.308,4.264 78.764,4.264 L78.764,4.264 Z M88.028,18.208 C88.892,18.784 90.596,19.24 92.156,19.24 C95.972,19.24 97.82,17.08 97.82,14.584 C97.82,12.208 96.428,10.888 93.692,9.832 C91.46,8.968 90.476,8.224 90.476,6.712 C90.476,5.608 91.316,4.288 93.524,4.288 C94.988,4.288 96.068,4.768 96.596,5.056 L97.172,3.352 C96.452,2.944 95.252,2.56 93.596,2.56 C90.452,2.56 88.364,4.432 88.364,6.952 C88.364,9.232 89.996,10.6 92.636,11.536 C94.82,12.376 95.684,13.24 95.684,14.752 C95.684,16.384 94.436,17.512 92.3,17.512 C90.86,17.512 89.492,17.032 88.556,16.456 L88.028,18.208 Z" id="macOS" fill="#000000"></path>
                <g id="icongallery" transform="translate(104.568000, 1.000000)" fill="#999999">
                    <path d="M3.916,18 L3.916,6.384 L1.804,6.384 L1.804,18 L3.916,18 Z M2.86,1.8 C2.092,1.8 1.54,2.376 1.54,3.12 C1.54,3.84 2.068,4.416 2.812,4.416 C3.652,4.416 4.18,3.84 4.156,3.12 C4.156,2.376 3.652,1.8 2.86,1.8 L2.86,1.8 Z M15.34,15.984 C14.74,16.248 13.948,16.56 12.748,16.56 C10.444,16.56 8.716,14.904 8.716,12.216 C8.716,9.792 10.156,7.824 12.82,7.824 C13.972,7.824 14.764,8.088 15.268,8.376 L15.748,6.744 C15.172,6.456 14.068,6.144 12.82,6.144 C9.028,6.144 6.58,8.736 6.58,12.312 C6.58,15.864 8.86,18.24 12.364,18.24 C13.924,18.24 15.148,17.856 15.7,17.568 L15.34,15.984 Z M22.948,6.12 C19.732,6.12 17.188,8.4 17.188,12.288 C17.188,15.96 19.612,18.264 22.756,18.264 C25.564,18.264 28.54,16.392 28.54,12.096 C28.54,8.544 26.284,6.12 22.948,6.12 L22.948,6.12 Z M22.9,7.704 C25.396,7.704 26.38,10.2 26.38,12.168 C26.38,14.784 24.868,16.68 22.852,16.68 C20.788,16.68 19.324,14.76 19.324,12.216 C19.324,10.008 20.404,7.704 22.9,7.704 L22.9,7.704 Z M31.204,18 L33.316,18 L33.316,11.016 C33.316,10.656 33.364,10.296 33.46,10.032 C33.82,8.856 34.9,7.872 36.292,7.872 C38.284,7.872 38.98,9.432 38.98,11.304 L38.98,18 L41.092,18 L41.092,11.064 C41.092,7.08 38.596,6.12 36.988,6.12 C35.068,6.12 33.724,7.2 33.148,8.304 L33.1,8.304 L32.98,6.384 L31.108,6.384 C31.18,7.344 31.204,8.328 31.204,9.528 L31.204,18 Z M57.772,6.384 L57.676,8.136 L57.628,8.136 C57.124,7.176 56.02,6.12 54.004,6.12 C51.34,6.12 48.772,8.352 48.772,12.288 C48.772,15.504 50.836,17.952 53.716,17.952 C55.516,17.952 56.764,17.088 57.412,16.008 L57.46,16.008 L57.46,17.304 C57.46,20.232 55.876,21.36 53.716,21.36 C52.276,21.36 51.076,20.928 50.308,20.448 L49.78,22.056 C50.716,22.68 52.252,23.016 53.644,23.016 C55.108,23.016 56.74,22.68 57.868,21.624 C58.996,20.616 59.524,18.984 59.524,16.32 L59.524,9.576 C59.524,8.16 59.572,7.224 59.62,6.384 L57.772,6.384 Z M57.436,13.056 C57.436,13.416 57.388,13.824 57.268,14.184 C56.812,15.528 55.636,16.344 54.34,16.344 C52.06,16.344 50.908,14.448 50.908,12.168 C50.908,9.48 52.348,7.776 54.364,7.776 C55.9,7.776 56.932,8.784 57.316,10.008 C57.412,10.296 57.436,10.608 57.436,10.968 L57.436,13.056 Z M71.38,18 C71.236,17.208 71.188,16.224 71.188,15.216 L71.188,10.872 C71.188,8.544 70.324,6.12 66.772,6.12 C65.308,6.12 63.916,6.528 62.956,7.152 L63.436,8.544 C64.252,8.016 65.38,7.68 66.46,7.68 C68.836,7.68 69.1,9.408 69.1,10.368 L69.1,10.608 C64.612,10.584 62.116,12.12 62.116,14.928 C62.116,16.608 63.316,18.264 65.668,18.264 C67.324,18.264 68.572,17.448 69.22,16.536 L69.292,16.536 L69.46,18 L71.38,18 Z M69.148,14.088 C69.148,14.304 69.1,14.544 69.028,14.76 C68.692,15.744 67.732,16.704 66.22,16.704 C65.14,16.704 64.228,16.056 64.228,14.688 C64.228,12.432 66.844,12.024 69.148,12.072 L69.148,14.088 Z M74.596,18 L76.708,18 L76.708,0.96 L74.596,0.96 L74.596,18 Z M80.26,18 L82.372,18 L82.372,0.96 L80.26,0.96 L80.26,18 Z M95.26,12.576 C95.284,12.36 95.332,12.024 95.332,11.592 C95.332,9.456 94.324,6.12 90.532,6.12 C87.148,6.12 85.084,8.88 85.084,12.384 C85.084,15.888 87.22,18.24 90.796,18.24 C92.644,18.24 93.916,17.856 94.66,17.52 L94.3,16.008 C93.508,16.344 92.596,16.608 91.084,16.608 C88.972,16.608 87.148,15.432 87.1,12.576 L95.26,12.576 Z M87.124,11.064 C87.292,9.6 88.228,7.632 90.364,7.632 C92.74,7.632 93.316,9.72 93.292,11.064 L87.124,11.064 Z M97.948,18 L100.036,18 L100.036,11.808 C100.036,11.448 100.084,11.112 100.132,10.824 C100.42,9.24 101.476,8.112 102.964,8.112 C103.252,8.112 103.468,8.136 103.684,8.184 L103.684,6.192 C103.492,6.144 103.324,6.12 103.084,6.12 C101.668,6.12 100.396,7.104 99.868,8.664 L99.772,8.664 L99.7,6.384 L97.852,6.384 C97.924,7.464 97.948,8.64 97.948,10.008 L97.948,18 Z M104.86,6.384 L109.156,17.088 C109.252,17.352 109.3,17.52 109.3,17.64 C109.3,17.76 109.228,17.928 109.132,18.144 C108.652,19.224 107.932,20.04 107.356,20.496 C106.732,21.024 106.036,21.36 105.508,21.528 L106.036,23.304 C106.564,23.208 107.596,22.848 108.628,21.936 C110.068,20.688 111.1,18.648 112.612,14.664 L115.78,6.384 L113.548,6.384 L111.244,13.2 C110.956,14.04 110.716,14.928 110.5,15.624 L110.452,15.624 C110.26,14.928 109.972,14.016 109.708,13.248 L107.164,6.384 L104.86,6.384 Z" id="icon-gallery"></path>
                </g>
            </g>
        </g>
    </g>
</svg>