<?xml version="1.0" encoding="UTF-8" standalone="no"?>
<svg width="236px" height="25px" viewBox="0 0 236 25" version="1.1" xmlns="http://www.w3.org/2000/svg" xmlns:xlink="http://www.w3.org/1999/xlink">
    <!-- Generator: Sketch 3.8.3 (29802) - http://www.bohemiancoding.com/sketch -->
    <title>watchosicongallery-logo</title>
    <desc>Created with Sketch.</desc>
    <defs></defs>
    <g id="Page-1" stroke="none" stroke-width="1" fill="none" fill-rule="evenodd">
        <g id="applewatchicongallery-logo" transform="translate(-76.000000, -383.000000)">
            <g id="watchos" transform="translate(77.000000, 384.000000)">
                <g id="Watch" stroke="#000000" stroke-width="1.5">
                    <path d="M8.14398758,21.0969941 L3.22441219,21.0969941 C2.36241997,21.0969941 1.63399269,18.6693925 1.43424334,17.2835831 C1.66907841,17.3696849 1.92265244,17.4172161 2.1869914,17.4172161 L9.18100967,17.4172161 C9.44534864,17.4172161 9.69972007,17.3696849 9.93415643,17.2835831 C9.73400838,18.6693925 9.0055811,21.0969941 8.14398758,21.0969941 Z" id="Fill-7"></path>
                    <path d="M8.14398758,0.152912109 C8.99800577,0.152912109 9.72164864,2.5653192 9.92897332,3.96437506 C9.69533435,3.87944212 9.44335513,3.83307965 9.18100967,3.83307965 L2.1873901,3.83307965 C1.92504464,3.83307965 1.67306542,3.87944212 1.43982516,3.96437506 C1.64635243,2.5653192 2.3699953,0.152912109 3.22441219,0.152912109 L8.14398758,0.152912109 Z" id="Fill-8"></path>
                    <path d="M11.3331993,6.15545468 C11.3331993,4.99873041 10.3651525,4.05278009 9.18140837,4.05278009 L2.1873901,4.05278009 C1.00364593,4.05278009 0.0355991649,4.99873041 0.0355991649,6.15545468 L0.0355991649,15.0936723 C0.0355991649,16.2496174 1.00364593,17.1955677 2.1873901,17.1955677 L9.18140837,17.1955677 C10.3651525,17.1955677 11.3331993,16.2496174 11.3331993,15.0936723 L11.333199,7.20776595 L11.3331993,6.15545468 Z" id="Fill-9"></path>
                </g>
                <path d="M23.432,6.384 L26.936,18 L28.856,18 L30.728,12.48 C31.136,11.232 31.496,10.032 31.784,8.64 L31.832,8.64 C32.12,10.008 32.456,11.16 32.864,12.456 L34.64,18 L36.56,18 L40.304,6.384 L38.216,6.384 L36.56,12.216 C36.176,13.584 35.864,14.808 35.672,15.984 L35.6,15.984 C35.336,14.808 35,13.584 34.568,12.192 L32.768,6.384 L30.992,6.384 L29.096,12.312 C28.712,13.56 28.328,14.808 28.064,15.984 L27.992,15.984 C27.776,14.784 27.464,13.584 27.128,12.288 L25.592,6.384 L23.432,6.384 Z M50.672,18 C50.528,17.208 50.48,16.224 50.48,15.216 L50.48,10.872 C50.48,8.544 49.616,6.12 46.064,6.12 C44.6,6.12 43.208,6.528 42.248,7.152 L42.728,8.544 C43.544,8.016 44.672,7.68 45.752,7.68 C48.128,7.68 48.392,9.408 48.392,10.368 L48.392,10.608 C43.904,10.584 41.408,12.12 41.408,14.928 C41.408,16.608 42.608,18.264 44.96,18.264 C46.616,18.264 47.864,17.448 48.512,16.536 L48.584,16.536 L48.752,18 L50.672,18 Z M48.44,14.088 C48.44,14.304 48.392,14.544 48.32,14.76 C47.984,15.744 47.024,16.704 45.512,16.704 C44.432,16.704 43.52,16.056 43.52,14.688 C43.52,12.432 46.136,12.024 48.44,12.072 L48.44,14.088 Z M54.272,3.6 L54.272,6.384 L52.472,6.384 L52.472,7.992 L54.272,7.992 L54.272,14.328 C54.272,15.696 54.488,16.728 55.088,17.352 C55.592,17.928 56.384,18.24 57.368,18.24 C58.184,18.24 58.832,18.12 59.24,17.952 L59.144,16.368 C58.88,16.44 58.472,16.512 57.92,16.512 C56.744,16.512 56.336,15.696 56.336,14.256 L56.336,7.992 L59.36,7.992 L59.36,6.384 L56.336,6.384 L56.336,3.048 L54.272,3.6 Z M69.512,15.984 C68.912,16.248 68.12,16.56 66.92,16.56 C64.616,16.56 62.888,14.904 62.888,12.216 C62.888,9.792 64.328,7.824 66.992,7.824 C68.144,7.824 68.936,8.088 69.44,8.376 L69.92,6.744 C69.344,6.456 68.24,6.144 66.992,6.144 C63.2,6.144 60.752,8.736 60.752,12.312 C60.752,15.864 63.032,18.24 66.536,18.24 C68.096,18.24 69.32,17.856 69.872,17.568 L69.512,15.984 Z M72.344,18 L74.456,18 L74.456,10.992 C74.456,10.584 74.48,10.272 74.6,9.984 C74.984,8.832 76.064,7.872 77.432,7.872 C79.424,7.872 80.12,9.456 80.12,11.328 L80.12,18 L82.232,18 L82.232,11.088 C82.232,7.08 79.736,6.12 78.176,6.12 C77.384,6.12 76.64,6.36 76.016,6.72 C75.368,7.08 74.84,7.608 74.504,8.208 L74.456,8.208 L74.456,0.96 L72.344,0.96 L72.344,18 Z M92.288,1.56 C87.968,1.56 84.776,4.92 84.776,10.056 C84.776,14.952 87.776,18.264 92.048,18.264 C96.176,18.264 99.56,15.312 99.56,9.744 C99.56,4.944 96.704,1.56 92.288,1.56 L92.288,1.56 Z M92.192,3.264 C95.672,3.264 97.352,6.624 97.352,9.84 C97.352,13.512 95.48,16.56 92.168,16.56 C88.88,16.56 87.008,13.464 87.008,10.008 C87.008,6.456 88.736,3.264 92.192,3.264 L92.192,3.264 Z M101.456,17.208 C102.32,17.784 104.024,18.24 105.584,18.24 C109.4,18.24 111.248,16.08 111.248,13.584 C111.248,11.208 109.856,9.888 107.12,8.832 C104.888,7.968 103.904,7.224 103.904,5.712 C103.904,4.608 104.744,3.288 106.952,3.288 C108.416,3.288 109.496,3.768 110.024,4.056 L110.6,2.352 C109.88,1.944 108.68,1.56 107.024,1.56 C103.88,1.56 101.792,3.432 101.792,5.952 C101.792,8.232 103.424,9.6 106.064,10.536 C108.248,11.376 109.112,12.24 109.112,13.752 C109.112,15.384 107.864,16.512 105.728,16.512 C104.288,16.512 102.92,16.032 101.984,15.456 L101.456,17.208 Z" id="watchOS" fill="#000000"></path>
                <g id="icongallery" transform="translate(119.000000, 0.000000)" fill="#999999">
                    <path d="M3.916,18 L3.916,6.384 L1.804,6.384 L1.804,18 L3.916,18 Z M2.86,1.8 C2.092,1.8 1.54,2.376 1.54,3.12 C1.54,3.84 2.068,4.416 2.812,4.416 C3.652,4.416 4.18,3.84 4.156,3.12 C4.156,2.376 3.652,1.8 2.86,1.8 L2.86,1.8 Z M15.34,15.984 C14.74,16.248 13.948,16.56 12.748,16.56 C10.444,16.56 8.716,14.904 8.716,12.216 C8.716,9.792 10.156,7.824 12.82,7.824 C13.972,7.824 14.764,8.088 15.268,8.376 L15.748,6.744 C15.172,6.456 14.068,6.144 12.82,6.144 C9.028,6.144 6.58,8.736 6.58,12.312 C6.58,15.864 8.86,18.24 12.364,18.24 C13.924,18.24 15.148,17.856 15.7,17.568 L15.34,15.984 Z M22.948,6.12 C19.732,6.12 17.188,8.4 17.188,12.288 C17.188,15.96 19.612,18.264 22.756,18.264 C25.564,18.264 28.54,16.392 28.54,12.096 C28.54,8.544 26.284,6.12 22.948,6.12 L22.948,6.12 Z M22.9,7.704 C25.396,7.704 26.38,10.2 26.38,12.168 C26.38,14.784 24.868,16.68 22.852,16.68 C20.788,16.68 19.324,14.76 19.324,12.216 C19.324,10.008 20.404,7.704 22.9,7.704 L22.9,7.704 Z M31.204,18 L33.316,18 L33.316,11.016 C33.316,10.656 33.364,10.296 33.46,10.032 C33.82,8.856 34.9,7.872 36.292,7.872 C38.284,7.872 38.98,9.432 38.98,11.304 L38.98,18 L41.092,18 L41.092,11.064 C41.092,7.08 38.596,6.12 36.988,6.12 C35.068,6.12 33.724,7.2 33.148,8.304 L33.1,8.304 L32.98,6.384 L31.108,6.384 C31.18,7.344 31.204,8.328 31.204,9.528 L31.204,18 Z M57.772,6.384 L57.676,8.136 L57.628,8.136 C57.124,7.176 56.02,6.12 54.004,6.12 C51.34,6.12 48.772,8.352 48.772,12.288 C48.772,15.504 50.836,17.952 53.716,17.952 C55.516,17.952 56.764,17.088 57.412,16.008 L57.46,16.008 L57.46,17.304 C57.46,20.232 55.876,21.36 53.716,21.36 C52.276,21.36 51.076,20.928 50.308,20.448 L49.78,22.056 C50.716,22.68 52.252,23.016 53.644,23.016 C55.108,23.016 56.74,22.68 57.868,21.624 C58.996,20.616 59.524,18.984 59.524,16.32 L59.524,9.576 C59.524,8.16 59.572,7.224 59.62,6.384 L57.772,6.384 Z M57.436,13.056 C57.436,13.416 57.388,13.824 57.268,14.184 C56.812,15.528 55.636,16.344 54.34,16.344 C52.06,16.344 50.908,14.448 50.908,12.168 C50.908,9.48 52.348,7.776 54.364,7.776 C55.9,7.776 56.932,8.784 57.316,10.008 C57.412,10.296 57.436,10.608 57.436,10.968 L57.436,13.056 Z M71.38,18 C71.236,17.208 71.188,16.224 71.188,15.216 L71.188,10.872 C71.188,8.544 70.324,6.12 66.772,6.12 C65.308,6.12 63.916,6.528 62.956,7.152 L63.436,8.544 C64.252,8.016 65.38,7.68 66.46,7.68 C68.836,7.68 69.1,9.408 69.1,10.368 L69.1,10.608 C64.612,10.584 62.116,12.12 62.116,14.928 C62.116,16.608 63.316,18.264 65.668,18.264 C67.324,18.264 68.572,17.448 69.22,16.536 L69.292,16.536 L69.46,18 L71.38,18 Z M69.148,14.088 C69.148,14.304 69.1,14.544 69.028,14.76 C68.692,15.744 67.732,16.704 66.22,16.704 C65.14,16.704 64.228,16.056 64.228,14.688 C64.228,12.432 66.844,12.024 69.148,12.072 L69.148,14.088 Z M74.596,18 L76.708,18 L76.708,0.96 L74.596,0.96 L74.596,18 Z M80.26,18 L82.372,18 L82.372,0.96 L80.26,0.96 L80.26,18 Z M95.26,12.576 C95.284,12.36 95.332,12.024 95.332,11.592 C95.332,9.456 94.324,6.12 90.532,6.12 C87.148,6.12 85.084,8.88 85.084,12.384 C85.084,15.888 87.22,18.24 90.796,18.24 C92.644,18.24 93.916,17.856 94.66,17.52 L94.3,16.008 C93.508,16.344 92.596,16.608 91.084,16.608 C88.972,16.608 87.148,15.432 87.1,12.576 L95.26,12.576 Z M87.124,11.064 C87.292,9.6 88.228,7.632 90.364,7.632 C92.74,7.632 93.316,9.72 93.292,11.064 L87.124,11.064 Z M97.948,18 L100.036,18 L100.036,11.808 C100.036,11.448 100.084,11.112 100.132,10.824 C100.42,9.24 101.476,8.112 102.964,8.112 C103.252,8.112 103.468,8.136 103.684,8.184 L103.684,6.192 C103.492,6.144 103.324,6.12 103.084,6.12 C101.668,6.12 100.396,7.104 99.868,8.664 L99.772,8.664 L99.7,6.384 L97.852,6.384 C97.924,7.464 97.948,8.64 97.948,10.008 L97.948,18 Z M104.86,6.384 L109.156,17.088 C109.252,17.352 109.3,17.52 109.3,17.64 C109.3,17.76 109.228,17.928 109.132,18.144 C108.652,19.224 107.932,20.04 107.356,20.496 C106.732,21.024 106.036,21.36 105.508,21.528 L106.036,23.304 C106.564,23.208 107.596,22.848 108.628,21.936 C110.068,20.688 111.1,18.648 112.612,14.664 L115.78,6.384 L113.548,6.384 L111.244,13.2 C110.956,14.04 110.716,14.928 110.5,15.624 L110.452,15.624 C110.26,14.928 109.972,14.016 109.708,13.248 L107.164,6.384 L104.86,6.384 Z" id="icon-gallery"></path>
                </g>
            </g>
        </g>
    </g>
</svg>